<?xml version="1.0" encoding="UTF-8"?>
<svg version="1.1" xmlns="http://www.w3.org/2000/svg" width="1501" height="1500">
<path d="M0 0 C105.6 0 211.2 0 320 0 C320 26.07 320 52.14 320 79 C240.47 79 160.94 79 79 79 C79 83.62 79 88.24 79 93 C118.93 93 158.86 93 200 93 C200 150.09 200 207.18 200 266 C103.31 266 6.62 266 -93 266 C-93 239.6 -93 213.2 -93 186 C-22.71 186 47.58 186 120 186 C120 181.71 120 177.42 120 173 C80.4 173 40.8 173 0 173 C0 115.91 0 58.82 0 0 Z " fill="#FFFFFF" transform="translate(383,621)"/>
<path d="M0 0 C1.28090374 -0.00085442 2.56180747 -0.00170885 3.88152647 -0.00258917 C7.42075412 -0.00481667 10.9599513 -0.0008368 14.49917507 0.0041889 C18.3218377 0.00851833 22.14449869 0.0070452 25.96716309 0.00628662 C32.58484808 0.00576297 39.20252318 0.00889323 45.82020569 0.01452446 C55.38819431 0.02266091 64.95617816 0.02525688 74.52416986 0.02651245 C90.04862734 0.0286996 105.57307956 0.03535055 121.09753418 0.04481506 C136.17565891 0.0539979 151.25378221 0.06107447 166.33190918 0.06532288 C167.26175001 0.0655856 168.19159084 0.06584832 169.14960867 0.06611901 C173.81447382 0.06742407 178.47933898 0.06868777 183.14420414 0.06993091 C221.82721987 0.08029302 260.51022586 0.09872568 299.1932373 0.12025452 C299.1932373 26.19025452 299.1932373 52.26025452 299.1932373 79.12025452 C276.0932373 79.12025452 252.9932373 79.12025452 229.1932373 79.12025452 C229.1932373 130.27025452 229.1932373 181.42025452 229.1932373 234.12025452 C225.59142275 234.84061743 222.47861384 235.303805 218.86120605 235.51478577 C197.82053728 236.86108684 177.50190575 239.6899233 157.2376709 245.61122131 C154.59024932 246.27038945 151.88436573 246.67173311 149.1932373 247.12025452 C149.1932373 191.68025452 149.1932373 136.24025452 149.1932373 79.12025452 C98.60428373 79.67311039 98.60428373 79.67311039 48.01745605 80.38148499 C38.16003418 80.44471741 38.16003418 80.44471741 33.52307129 80.45646667 C30.33186278 80.46934298 27.14402265 80.52108502 23.95373535 80.59831238 C2.68970695 81.09058839 -11.8915499 79.83216497 -29.59521389 66.72386456 C-32.49103595 64.62408303 -35.4840878 62.94119964 -38.6348877 61.25306702 C-39.54295166 60.74799622 -40.45101562 60.24292542 -41.38659668 59.72254944 C-42.26775146 59.23504211 -43.14890625 58.74753479 -44.0567627 58.24525452 C-54.73226899 52.3038552 -65.3478368 46.26232111 -75.94641113 40.18519592 C-77.07466309 39.53856995 -78.20291504 38.89194397 -79.36535645 38.22572327 C-80.36881104 37.64975403 -81.37226562 37.07378479 -82.40612793 36.48036194 C-83.85436404 35.659847 -85.3179692 34.86465127 -86.8067627 34.12025452 C-85.28405211 29.86447364 -82.13388077 27.83944556 -78.5567627 25.37025452 C-77.93052002 24.93414856 -77.30427734 24.4980426 -76.65905762 24.04872131 C-53.58751157 8.21032304 -28.01760257 -0.06854176 0 0 Z " fill="#FFFFFF" transform="translate(901.8067626953125,620.8797454833984)"/>
<path d="M0 0 C26.07 0 52.14 0 79 0 C79 33 79 33 73.9375 40.875 C71.98726122 42.61628463 70.01028876 44.32840119 68 46 C65.32488008 49.47334119 63.1674169 53.19300696 61 57 C60.61457031 57.67272949 60.22914063 58.34545898 59.83203125 59.03857422 C48.38687174 79.22167282 40.76759891 101.60492014 40 125 C39.96003906 126.18207031 39.92007813 127.36414063 39.87890625 128.58203125 C39.21829722 168.17971346 53.41203314 203.147372 79 233 C79 243.89 79 254.78 79 266 C52.93 266 26.86 266 0 266 C0 235.31 0 204.62 0 173 C-13.53 173 -27.06 173 -41 173 C-41 203.69 -41 234.38 -41 266 C-67.07 266 -93.14 266 -120 266 C-120 208.91 -120 151.82 -120 93 C-80.4 93 -40.8 93 0 93 C0 62.31 0 31.62 0 0 Z " fill="#FFFFFF" transform="translate(716,621)"/>
<path d="M0 0 C26.07 0 52.14 0 79 0 C79 57.09 79 114.18 79 173 C52.93 173 26.86 173 0 173 C0 115.91 0 58.82 0 0 Z " fill="#FFFFFF" transform="translate(290,621)"/>
<path d="M0 0 C2.8828125 0.390625 2.8828125 0.390625 4.8203125 1.390625 C6.57702693 4.69738158 5.79493592 7.90970154 4.8828125 11.390625 C3.27278221 14.83389351 1.29568824 17.99864811 -0.7421875 21.203125 C-1.55381348 22.51555176 -1.55381348 22.51555176 -2.38183594 23.85449219 C-3.94591763 26.37590781 -5.52835287 28.88475534 -7.1171875 31.390625 C-7.90136217 32.63912167 -8.68525987 33.88779239 -9.46875 35.13671875 C-11.00336241 37.56494291 -12.55426092 39.98063231 -14.1171875 42.390625 C-13.4780542 42.43550049 -12.8389209 42.48037598 -12.18041992 42.52661133 C-9.22090899 42.74088301 -6.26292248 42.97192756 -3.3046875 43.203125 C-2.29986328 43.27337891 -1.29503906 43.34363281 -0.25976562 43.41601562 C6.74071714 43.9787554 13.17762586 45.30730754 19.8828125 47.390625 C20.2128125 49.700625 20.5428125 52.010625 20.8828125 54.390625 C19.08170118 56.33405847 17.67690764 57.35877135 14.98388672 57.46679688 C12.58206449 57.26411146 10.20813078 56.96971242 7.8203125 56.640625 C6.0330253 56.42571477 4.2452434 56.21488554 2.45703125 56.0078125 C1.54099121 55.90049805 0.62495117 55.79318359 -0.31884766 55.68261719 C-4.82667323 55.21224907 -9.34092221 54.97825963 -13.8671875 54.765625 C-14.69484619 54.72598633 -15.52250488 54.68634766 -16.37524414 54.64550781 C-18.2890415 54.55650348 -20.20308927 54.47290524 -22.1171875 54.390625 C-22.33375 55.174375 -22.5503125 55.958125 -22.7734375 56.765625 C-24.5673197 61.60493513 -27.08168189 65.90561313 -29.6171875 70.390625 C-45.08825963 96.87672265 -45.08825963 96.87672265 -50.1171875 126.390625 C-45.2096449 124.47875357 -41.54495065 122.46549777 -37.4921875 119.015625 C-36.69941406 118.34321777 -36.69941406 118.34321777 -35.890625 117.65722656 C-32.00040222 114.26847781 -28.38025537 110.65635612 -24.78125 106.9609375 C-24.08290543 106.24636887 -24.08290543 106.24636887 -23.37045288 105.5173645 C-21.01312082 103.10253283 -18.67565504 100.6726844 -16.36474609 98.21337891 C-15.49930176 97.31796387 -14.63385742 96.42254883 -13.7421875 95.5 C-12.97132813 94.68499023 -12.20046875 93.86998047 -11.40625 93.03027344 C-9.1171875 91.390625 -9.1171875 91.390625 -6.453125 91.57128906 C-4.1171875 92.390625 -4.1171875 92.390625 -2.1171875 93.390625 C-1.60247756 98.79507933 -2.95862076 101.07765823 -6.1171875 105.390625 C-9.21477847 109.00529415 -12.46705465 112.46928761 -15.73730469 115.92724609 C-16.95022521 117.2135599 -18.14822284 118.51391087 -19.34375 119.81640625 C-23.64386824 124.35005151 -28.25891537 128.16916388 -33.3046875 131.828125 C-34.17830933 132.46645264 -34.17830933 132.46645264 -35.06958008 133.11767578 C-41.02963021 137.30930347 -45.84527767 138.96555639 -53 137.9296875 C-56.16515645 137.12379896 -57.92636841 135.78060946 -60.1171875 133.390625 C-64.60164047 123.70680627 -63.07193038 114.32265675 -60.1171875 104.390625 C-59.7871875 103.730625 -59.4571875 103.070625 -59.1171875 102.390625 C-67.09481627 101.3359191 -67.09481627 101.3359191 -74.375 103.92578125 C-75.64453221 105.30420639 -76.87958413 106.71502373 -78.08203125 108.15234375 C-82.93875483 113.4938075 -90.91148096 118.63145946 -98.1796875 119.69140625 C-102.72939796 119.71892466 -105.29653994 119.08755269 -109.1171875 116.390625 C-109.7771875 116.390625 -110.4371875 116.390625 -111.1171875 116.390625 C-112.28743798 118.42243394 -113.455803 120.45529891 -114.62231445 122.48925781 C-115.67415212 124.32218264 -116.72874759 126.15352723 -117.78588867 127.98339844 C-120.61588873 132.9086202 -123.38566188 137.85451709 -126.02333069 142.88505554 C-127.32558205 145.36746526 -128.64532008 147.84042074 -129.96505737 150.31356812 C-130.60637367 151.52825271 -131.23872174 152.74771616 -131.86184692 153.97183228 C-132.74324075 155.70132812 -133.65815574 157.41361474 -134.57421875 159.125 C-135.08960205 160.11725586 -135.60498535 161.10951172 -136.13598633 162.13183594 C-138.1171875 164.390625 -138.1171875 164.390625 -141.71362305 165.28613281 C-145.1171875 165.390625 -145.1171875 165.390625 -147.1171875 164.328125 C-148.62095463 161.41457619 -147.8488236 159.55233816 -147.1171875 156.390625 C-146.10234888 154.02456866 -145.05262368 151.79166246 -143.8671875 149.515625 C-143.52945312 148.85304688 -143.19171875 148.19046875 -142.84375 147.5078125 C-137.45762323 137.03688074 -131.76834316 126.72002674 -126.1171875 116.390625 C-126.70016602 116.67357422 -127.28314453 116.95652344 -127.88378906 117.24804688 C-134.16890195 120.19023464 -139.14723047 121.48939211 -146.1171875 120.390625 C-150.09037641 118.15570624 -152.09289025 115.43921949 -154.1171875 111.390625 C-154.47310678 110.06314229 -154.81063582 108.73036936 -155.1171875 107.390625 C-155.69573486 107.71861084 -156.27428223 108.04659668 -156.87036133 108.38452148 C-159.54590875 109.88613953 -162.23724369 111.35703349 -164.9296875 112.828125 C-165.83912109 113.34439453 -166.74855469 113.86066406 -167.68554688 114.39257812 C-174.43720587 118.04276833 -181.4085414 120.6120192 -189.17456055 118.95043945 C-193.89000283 117.17383561 -197.8543727 113.91625459 -200.1171875 109.390625 C-200.8803125 110.009375 -201.6434375 110.628125 -202.4296875 111.265625 C-206.89218662 114.22295815 -211.82915452 115.11479616 -217.1171875 115.390625 C-221.29390275 114.32746112 -223.29206172 112.63258779 -225.5546875 109.078125 C-228.25534548 103.15445956 -226.92599625 96.65010144 -226.1171875 90.390625 C-226.601875 90.88691406 -227.0865625 91.38320313 -227.5859375 91.89453125 C-232.25460598 96.62604719 -237.05864498 101.08214223 -242.1171875 105.390625 C-243.07109375 106.23367188 -244.025 107.07671875 -245.0078125 107.9453125 C-255.39345735 117.02308667 -255.39345735 117.02308667 -262.1171875 118.390625 C-266.0546875 117.703125 -266.0546875 117.703125 -269.1171875 116.390625 C-270.65781172 113.30937656 -270.74702294 110.71002798 -270.1171875 107.390625 C-268.34869419 103.2607033 -266.28658637 99.32266045 -264.1171875 95.390625 C-267.0871875 95.885625 -267.0871875 95.885625 -270.1171875 96.390625 C-270.3440625 97.215625 -270.5709375 98.040625 -270.8046875 98.890625 C-274.07866769 107.62123885 -279.1832024 113.47051137 -287.1796875 118.203125 C-291.25744946 119.85158196 -294.41328823 120.83688433 -298.7421875 119.703125 C-302.12645064 117.83287432 -304.41378948 116.36013947 -305.76171875 112.5859375 C-307.00909285 106.22083228 -304.86861753 101.55386408 -302.37109375 95.7421875 C-301.1185412 92.3942433 -300.6243563 89.49367729 -300.2421875 85.953125 C-299.6620042 81.84846371 -299.01789617 79.59362984 -295.9296875 76.765625 C-290.64614035 73.06495871 -285.37894748 71.78511894 -279.04296875 72.85546875 C-275.78229218 73.76157968 -273.64185824 75.1665103 -271.1171875 77.390625 C-269.7421875 80.640625 -269.7421875 80.640625 -269.1171875 83.390625 C-268.32054687 83.16246094 -267.52390625 82.93429687 -266.703125 82.69921875 C-265.64351562 82.41175781 -264.58390625 82.12429688 -263.4921875 81.828125 C-262.44804688 81.53808594 -261.40390625 81.24804688 -260.328125 80.94921875 C-256.28409518 80.24569531 -252.85991537 80.40307921 -249.2421875 82.453125 C-247.37922019 85.6615687 -247.94266559 88.72566485 -248.1171875 92.390625 C-248.1171875 93.050625 -248.1171875 93.710625 -248.1171875 94.390625 C-247.31796875 93.55660156 -246.51875 92.72257813 -245.6953125 91.86328125 C-225.88422229 71.46602817 -225.88422229 71.46602817 -215.08984375 71.0625 C-212.49943676 71.49337958 -211.66353869 72.29403841 -210.1171875 74.390625 C-209.33279125 81.33813463 -210.97735674 86.76840542 -213.16015625 93.34765625 C-214.22611181 96.73695986 -214.78922005 99.86497492 -215.1171875 103.390625 C-206.24698658 99.02891864 -199.10395664 93.68683482 -193.6796875 85.328125 C-189.17020848 78.50609264 -182.79889196 74.10255679 -175.1171875 71.390625 C-170.93067656 70.76710209 -169.44692997 71.18531365 -165.8046875 73.453125 C-162.57084799 76.98778679 -162.03514379 78.6320901 -162.1171875 83.390625 C-163.2185998 87.48986625 -164.49235708 89.97407139 -168.1171875 92.390625 C-170.6171875 92.765625 -170.6171875 92.765625 -173.1171875 92.390625 C-174.9296875 90.578125 -174.9296875 90.578125 -176.1171875 88.390625 C-176.1171875 87.400625 -176.1171875 86.410625 -176.1171875 85.390625 C-182.06805104 89.68078244 -185.92656791 94.86760084 -187.81640625 102.046875 C-188.34075095 104.40802053 -188.34075095 104.40802053 -187.1171875 106.390625 C-175.29059494 106.390625 -164.05276963 99.19714793 -154.71875 92.421875 C-153.1171875 91.390625 -153.1171875 91.390625 -151.1171875 91.390625 C-150.9315625 90.565625 -150.7459375 89.740625 -150.5546875 88.890625 C-147.51869856 81.49865194 -141.47042035 75.55754414 -134.1171875 72.390625 C-129.71031522 71.20217201 -126.42356539 70.83471951 -122.1796875 72.640625 C-119.33703564 75.05257203 -118.2095701 76.74394679 -117.6796875 80.453125 C-118.5263905 88.07345202 -122.27461557 94.44691029 -128.1171875 99.390625 C-129.0453125 100.256875 -129.0453125 100.256875 -129.9921875 101.140625 C-133.62164445 103.27559967 -137.43691118 103.69221306 -141.5546875 102.953125 C-142.328125 102.6746875 -142.328125 102.6746875 -143.1171875 102.390625 C-142.4571875 104.370625 -141.7971875 106.350625 -141.1171875 108.390625 C-134.55995797 106.56774376 -129.43253466 103.98841222 -123.9296875 100.015625 C-123.25744141 99.54640625 -122.58519531 99.0771875 -121.89257812 98.59375 C-119.94502571 97.22079192 -118.0278553 95.8143347 -116.1171875 94.390625 C-115.05886719 93.60816406 -114.00054688 92.82570313 -112.91015625 92.01953125 C-109.0656285 88.4008359 -106.9667256 84.2959189 -104.55078125 79.65429688 C-102.61455849 76.16701395 -101.67154794 74.66124678 -97.98046875 72.859375 C-95.1171875 72.390625 -95.1171875 72.390625 -92.8046875 73.578125 C-91.1171875 75.390625 -91.1171875 75.390625 -90.1171875 78.390625 C-89.53710938 78.11347656 -88.95703125 77.83632813 -88.359375 77.55078125 C-77.55077095 72.53887079 -77.55077095 72.53887079 -71.3671875 74.703125 C-66.55810461 77.20014881 -66.55810461 77.20014881 -65.4921875 80.078125 C-64.98652239 83.1963932 -65.05656278 86.23813964 -65.1171875 89.390625 C-64.0653125 89.37 -63.0134375 89.349375 -61.9296875 89.328125 C-58.79013846 89.37959302 -56.14835354 89.65579687 -53.1171875 90.390625 C-52.85365479 89.53831299 -52.59012207 88.68600098 -52.31860352 87.80786133 C-51.07776136 84.27848363 -49.57204692 81.05777592 -47.89453125 77.71484375 C-47.43621666 76.7989019 -47.43621666 76.7989019 -46.96864319 75.86445618 C-46.32759433 74.58535961 -45.68461759 73.30722756 -45.03979492 72.0300293 C-44.049856 70.06855181 -43.06647149 68.1038908 -42.08398438 66.13867188 C-37.26488705 56.53832455 -37.26488705 56.53832455 -36.1171875 55.390625 C-42.39363322 55.36562843 -48.67004902 55.34762675 -54.9465332 55.33569336 C-57.07511908 55.33071064 -59.20370161 55.32392205 -61.33227539 55.31518555 C-81.83178508 54.94157877 -81.83178508 54.94157877 -102.1171875 57.390625 C-105.7421875 57.703125 -105.7421875 57.703125 -109.1171875 57.390625 C-111.1171875 55.703125 -111.1171875 55.703125 -112.1171875 53.390625 C-112.1171875 50.828125 -112.1171875 50.828125 -111.1171875 48.390625 C-106.96639918 45.17282807 -102.68465403 44.60623707 -97.59765625 44.1328125 C-96.73424118 44.047966 -95.87082611 43.96311951 -94.98124695 43.8757019 C-87.374708 43.25394388 -79.90425222 43.55825121 -72.29296875 43.9609375 C-47.65336362 46.57910438 -47.65336362 46.57910438 -24.98193359 39.82958984 C-18.78772092 33.90699307 -15.84710822 25.77649123 -13.26708984 17.78564453 C-11.74281959 13.28532559 -9.56179757 9.5645186 -6.9296875 5.640625 C-6.31738281 4.59390625 -5.70507812 3.5471875 -5.07421875 2.46875 C-3.1171875 0.390625 -3.1171875 0.390625 0 0 Z M-286.1171875 84.390625 C-286.1171875 85.380625 -286.1171875 86.370625 -286.1171875 87.390625 C-284.1371875 87.390625 -282.1571875 87.390625 -280.1171875 87.390625 C-280.1171875 86.400625 -280.1171875 85.410625 -280.1171875 84.390625 C-282.0971875 84.390625 -284.0771875 84.390625 -286.1171875 84.390625 Z M-138.1171875 89.390625 C-138.1171875 90.050625 -138.1171875 90.710625 -138.1171875 91.390625 C-135.49531256 90.34187502 -134.32347389 89.74131187 -132.8671875 87.265625 C-132.6196875 86.646875 -132.3721875 86.028125 -132.1171875 85.390625 C-134.43298255 85.390625 -136.48316965 87.96609662 -138.1171875 89.390625 Z M-83.7421875 88.390625 C-84.96808594 89.2259375 -84.96808594 89.2259375 -86.21875 90.078125 C-86.84523438 90.51125 -87.47171875 90.944375 -88.1171875 91.390625 C-85.57016134 92.66413808 -84.688893 92.19254425 -81.9921875 91.453125 C-80.90550781 91.16115234 -80.90550781 91.16115234 -79.796875 90.86328125 C-79.24257812 90.70730469 -78.68828125 90.55132813 -78.1171875 90.390625 C-77.7871875 88.740625 -77.4571875 87.090625 -77.1171875 85.390625 C-79.98995827 85.390625 -81.3938931 86.78036598 -83.7421875 88.390625 Z M-291.1171875 98.390625 C-292.4371875 101.690625 -293.7571875 104.990625 -295.1171875 108.390625 C-290.10429812 106.41766634 -290.10429812 106.41766634 -286.8046875 102.828125 C-286.03705078 101.89806641 -286.03705078 101.89806641 -285.25390625 100.94921875 C-284.01897837 99.57748021 -284.01897837 99.57748021 -284.1171875 98.390625 C-286.4271875 98.390625 -288.7371875 98.390625 -291.1171875 98.390625 Z " fill="#FFFFFF" transform="translate(1206.1171875,822.609375)"/>
<path d="M0 0 C11.4532303 9.85869374 19.89592835 21.61904771 21.484375 36.99609375 C22.57849659 53.58375856 18.72524934 68.18717506 7.671875 80.87109375 C-2.59261429 91.51801558 -15.43785602 97.91375978 -30.30493164 98.33984375 C-47.22645345 98.54435275 -59.63734825 94.19954636 -72.203125 82.4921875 C-83.59233566 70.84875339 -87.92824393 57.54100954 -87.88452148 41.58056641 C-87.55724944 29.48342579 -83.63638662 19.69140991 -76.515625 9.99609375 C-75.773125 8.94421875 -75.030625 7.89234375 -74.265625 6.80859375 C-54.70757939 -13.1939529 -22.58114339 -17.98777416 0 0 Z " fill="#FFFFFF" transform="translate(362.515625,512.00390625)"/>
<path d="M0 0 C10.95576274 5.22930524 21.43842331 11.16601369 31.94384766 17.23876953 C35.78253837 19.45096915 39.63181559 21.6443415 43.48150635 23.83732605 C58.04229512 32.13253967 72.54369028 40.52367404 87 49 C84.65110132 51.46409125 82.5237355 53.48500806 79.515625 55.0859375 C78.84072021 55.45170898 78.16581543 55.81748047 77.47045898 56.19433594 C76.73770752 56.58395508 76.00495605 56.97357422 75.25 57.375 C67.89831294 61.36865831 60.64897088 65.50858153 53.4375 69.75 C45.17752612 74.59755733 36.86882815 79.34296255 28.5 84 C20.34462027 88.54046025 12.24083601 93.1558775 4.1875 97.875 C2.22921705 99.01961745 0.27088281 100.16414716 -1.6875 101.30859375 C-5.0356117 103.2654148 -8.38247915 105.22429397 -11.7265625 107.18798828 C-14.95158412 109.08038925 -18.1829779 110.96151936 -21.41830444 112.83624268 C-22.67472067 113.56670452 -23.92900598 114.30084474 -25.18106079 115.03875732 C-26.92377599 116.06522455 -28.67461127 117.077868 -30.42578125 118.08984375 C-31.43036377 118.67628662 -32.43494629 119.26272949 -33.4699707 119.86694336 C-36 121 -36 121 -39 120 C-43.70654131 81.83005668 -36.66331865 45.20517352 -12.65869141 14.42260742 C-9.77999574 10.8317898 -6.7476908 7.49665541 -3.375 4.3671875 C-1.75313598 2.84518872 -1.75313598 2.84518872 0 0 Z " fill="#FFFFFF" transform="translate(810,657)"/>
<path d="M0 0 C2.36961186 2.36961186 2.34566466 3.16202188 2.66796875 6.41015625 C2.80211182 7.75811279 2.80211182 7.75811279 2.93896484 9.13330078 C3.02098145 10.09993652 3.10299805 11.06657227 3.1875 12.0625 C3.27209473 13.05749512 3.35668945 14.05249023 3.44384766 15.07763672 C5.98928536 48.47913821 -4.13947933 83.30492898 -26 109 C-29.58519755 113.07735392 -33.26365478 117.06112392 -37 121 C-40.54886497 120.3164414 -43.30707855 118.8681737 -46.453125 117.11328125 C-47.53480957 116.51185303 -48.61649414 115.9104248 -49.73095703 115.29077148 C-50.90411129 114.63159664 -52.07712192 113.97216613 -53.25 113.3125 C-54.4685084 112.63145072 -55.68709676 111.95054448 -56.90576172 111.26977539 C-65.67764889 106.3576137 -74.37234738 101.31855063 -83.03979492 96.22436523 C-93.42703725 90.13105826 -103.94334909 84.27344529 -114.46533203 78.41699219 C-117.65632255 76.63308649 -120.83084715 74.82237401 -124 73 C-124 72.34 -124 71.68 -124 71 C-122.99755249 70.4423999 -122.99755249 70.4423999 -121.97485352 69.87353516 C-106.24795526 61.14488464 -106.24795526 61.14488464 -90.6875 52.125 C-83.39850952 47.79687894 -76.0505461 43.5757322 -68.6875 39.375 C-68.09143951 39.03487885 -67.49537903 38.69475769 -66.8812561 38.34432983 C-63.81659599 36.59585214 -60.75146607 34.84820017 -57.68603516 33.10107422 C-51.74728602 29.71625941 -45.81068453 26.32768565 -39.875 22.9375 C-38.73603271 22.28700684 -37.59706543 21.63651367 -36.42358398 20.96630859 C-24.26102454 14.01455176 -12.12786018 7.01208608 0 0 Z " fill="#FFFFFF" transform="translate(1032,729)"/>
<path d="M0 0 C0.32702408 9.98380165 0.5904241 19.96744082 0.79205322 29.95458984 C0.90062406 35.14183937 1.03958094 40.32610679 1.22460938 45.51123047 C1.42195854 51.04627056 1.56354552 56.58047736 1.67163086 62.11795044 C1.72363798 64.27938496 1.79524058 66.44044178 1.88696289 68.60055542 C2.59637167 85.75780566 2.59637167 85.75780566 -1.29321289 91.22094727 C-4.08415435 93.5145447 -6.83755945 95.26759506 -10 97 C-11.80549306 98.39802515 -11.80549306 98.39802515 -13.27734375 99.79296875 C-14.15519531 100.58316406 -15.03304687 101.37335938 -15.9375 102.1875 C-23.35559093 108.95678551 -30.42439918 116.63659877 -36 125 C-39.82249432 123.39672632 -42.62960048 120.85228557 -45.625 118.0625 C-46.15206543 117.57233398 -46.67913086 117.08216797 -47.22216797 116.57714844 C-66.38577825 98.53877272 -82.41660537 74.58424722 -86 48 C-85.2879541 47.59386475 -84.5759082 47.18772949 -83.84228516 46.76928711 C-70.87905538 39.37342557 -57.92224651 31.96732269 -45 24.5 C-35.51304178 19.01872801 -26.01213058 13.56242893 -16.5 8.125 C-15.88237793 7.77171631 -15.26475586 7.41843262 -14.62841797 7.05444336 C-12.88804962 6.0591133 -11.14716213 5.06469113 -9.40625 4.0703125 C-8.40916016 3.50070801 -7.41207031 2.93110352 -6.38476562 2.34423828 C-2.22593534 0 -2.22593534 0 0 0 Z " fill="#FFFFFF" transform="translate(859,735)"/>
<path d="M0 0 C4.01684726 2.93915653 6.95784056 6.06102168 8.5625 10.875 C10.35560473 32.90949847 -0.91954889 52.37335697 -14.4375 68.875 C-14.96859375 69.55304688 -15.4996875 70.23109375 -16.046875 70.9296875 C-21.1093518 77.12519482 -27.74679449 83.3114315 -35.4375 85.875 C-40.79716151 86.22078461 -44.05658568 86.32662946 -48.4375 82.875 C-50.89590183 77.95819633 -49.91766339 71.75077846 -48.6015625 66.609375 C-45.57604195 58.04045103 -41.14551585 50.01367723 -33.4375 44.875 C-30.375 44.625 -30.375 44.625 -27.4375 44.875 C-25.4375 46.875 -25.4375 46.875 -25.08203125 49.70703125 C-25.51181814 53.53732978 -26.54566281 54.75431219 -29.125 57.5625 C-33.43487518 62.59196357 -36.01374973 67.74570845 -38.4375 73.875 C-20.4760958 62.68820667 -8.55304453 43.17216057 -3.4375 22.875 C-2.73663607 18.77525615 -2.77539214 16.00610093 -4.9375 12.3125 C-7.90695648 10.60506252 -9.90386836 10.57636957 -13.24609375 11.22265625 C-22.77339019 14.05876767 -29.47807576 21.14500733 -36.4375 27.875 C-37.1490625 28.535 -37.860625 29.195 -38.59375 29.875 C-66.70754081 56.60614536 -97.92427539 105.46909314 -99.75 145 C-99.27224004 150.92422355 -98.17761552 156.55484597 -94.5625 161.375 C-90.10248937 164.5232428 -86.68645505 165.3987672 -81.15234375 164.59765625 C-59.44631703 158.81979302 -42.81864659 138.88424268 -29.80273438 121.65478516 C-27.45403226 118.59290418 -24.99781515 115.61806936 -22.5625 112.625 C-19.21135761 108.50132012 -16.0093196 104.31743949 -12.96484375 99.9609375 C-12.38653809 99.13625977 -11.80823242 98.31158203 -11.21240234 97.46191406 C-10.09156833 95.85049544 -8.98325095 94.23028045 -7.88916016 92.60058594 C-4.08029976 87.12074941 -4.08029976 87.12074941 -0.69921875 85.828125 C2.04020405 85.8849006 3.39611862 86.1728432 5.5625 87.875 C6.5625 90.0625 6.5625 90.0625 6.5625 92.875 C3.58132869 98.71220703 -0.2176877 103.87811284 -4.125 109.125 C-4.74785889 109.96546875 -5.37071777 110.8059375 -6.01245117 111.671875 C-10.64960153 117.89556108 -15.45391101 123.92501162 -20.4375 129.875 C-21.11554688 130.72578125 -21.79359375 131.5765625 -22.4921875 132.453125 C-37.56862081 151.34008541 -56.84565102 173.61512138 -82.3125 176.75 C-90.2546931 177.21012706 -96.52600525 175.73744049 -102.8125 170.75 C-108.88448391 164.96014868 -111.16320128 157.59610299 -111.640625 149.37890625 C-112.21982938 100.67747171 -76.02488976 50.5947701 -43.4375 16.875 C-38.84333214 12.26128249 -33.74405323 8.61278071 -28.3125 5.0625 C-27.72637939 4.67698975 -27.14025879 4.29147949 -26.53637695 3.89428711 C-18.3158817 -1.33377635 -9.40265876 -3.07723378 0 0 Z " fill="#FFFFFF" transform="translate(896.4375,822.125)"/>
<path d="M0 0 C3.76410993 1.50564397 7.03540064 3.03201369 10.55078125 4.984375 C12.16847412 5.88168335 12.16847412 5.88168335 13.81884766 6.79711914 C14.9835286 7.44784652 16.14807596 8.09881303 17.3125 8.75 C17.90891296 9.08224579 18.50532593 9.41449158 19.11981201 9.75680542 C28.50807643 14.98748127 37.81212493 20.35193058 47.07739258 25.79785156 C54.16833741 29.95737373 61.31651473 34.00267514 68.5 38 C77.80184874 43.17807258 87.02521826 48.47538787 96.20898438 53.85986328 C106.0937133 59.65339444 116.03970681 65.33759848 126 71 C126 71.66 126 72.32 126 73 C102.43170163 92.80956113 71.97779412 105.38923994 40.9375 105.0625 C39.24947266 105.04896484 39.24947266 105.04896484 37.52734375 105.03515625 C36.69332031 105.02355469 35.85929688 105.01195312 35 105 C36.3494818 101.37587619 38.01582167 98.00029978 39.81811523 94.58154297 C47.49662659 79.91273056 53.08764335 62.87267273 48.81640625 46.265625 C46.70968988 40.41923507 43.85359355 34.68931037 38.375 31.4375 C28.28302182 27.13906485 20.04005234 29.30763115 10 33 C7.03 34.32 4.06 35.64 1 37 C0.67 24.79 0.34 12.58 0 0 Z " fill="#FFFFFF" transform="translate(864,782)"/>
</svg>
